<svg width="53" height="44" viewBox="0 0 53 44" fill="none" xmlns="http://www.w3.org/2000/svg">
<path d="M22.8151 3.78856C25.2349 2.56406 27.6206 1.3612 29.9971 0.140292C30.4271 -0.0806281 30.7588 -0.0431049 31.1277 0.270416C32.8347 1.72108 34.5117 3.20446 36.149 4.73327C36.4527 5.01681 36.6444 5.31003 36.6613 5.75174C36.7495 8.06318 36.6777 10.375 36.7098 12.6863C36.7137 12.969 36.6474 13.2624 36.8112 13.6008C37.6515 13.3574 38.5132 13.1626 39.3315 12.8533C39.9793 12.6085 40.4487 12.7451 40.9595 13.1647C42.5364 14.4597 44.121 15.7444 45.6602 17.0849C46.0332 17.4098 46.1822 17.7609 46.1807 18.2571C46.1617 24.8143 46.1664 31.3716 46.1447 37.9288C46.1429 38.4797 46.2872 38.7927 46.8112 39.0541C48.6909 39.9919 50.4396 41.1435 52.047 42.5022C52.2856 42.7039 52.5431 42.9104 52.4162 43.2716C52.2701 43.6875 51.9846 43.798 51.5584 43.6416C50.1868 43.1384 48.811 42.6461 47.4319 42.1638C43.0537 40.6327 38.5886 39.4156 34.0499 38.4631C29.4179 37.4909 24.7345 37.1225 20.0139 37.3674C14.2321 37.6673 8.63218 38.8963 3.18685 40.8514C2.35557 41.1498 1.5104 41.41 0.668925 41.6794C0.458073 41.7469 0.204927 41.9113 0.0503748 41.6083C-0.0957819 41.3217 0.102758 41.1336 0.305625 40.9676C1.5375 39.9598 2.80946 39.0075 4.21669 38.2549C4.94836 37.8635 5.69027 37.4881 6.44617 37.1466C6.82845 36.974 6.98191 36.7554 6.97318 36.3252C6.93252 34.3217 6.903 32.3175 6.90922 30.3137C6.9219 26.2319 6.95966 22.1502 6.98914 18.0685C6.9907 17.8521 7.00927 17.6357 7.0234 17.4196C7.04457 17.0958 7.20286 16.8983 7.52525 16.8C9.80156 16.1061 12.0767 15.4081 14.3472 14.6956C14.6899 14.5881 14.9868 14.675 15.2947 14.7754C16.3921 15.1335 17.4888 15.4938 18.5845 15.8571C18.7404 15.9087 18.8924 15.9489 19.2132 15.9021C19.2132 14.8056 19.2038 13.709 19.2152 12.6126C19.2379 10.4281 19.1679 8.24265 19.3025 6.05866C19.3289 5.63064 19.4971 5.42265 19.8672 5.24899C20.8475 4.78896 21.8089 4.28844 22.8151 3.78856ZM29.5312 22.6225C29.5107 16.241 29.5478 9.85943 29.6316 3.51982C29.3446 3.40113 29.2065 3.51094 29.0668 3.57969C26.7032 4.74318 24.3457 5.91906 21.9751 7.06797C21.5516 7.27323 21.4344 7.54087 21.4324 7.99496C21.4129 12.3276 21.4569 16.66 21.3727 20.9931C21.2948 24.9999 21.3576 29.0094 21.3403 33.0177C21.3383 33.4742 21.4889 33.6249 21.9339 33.5931C24.2427 33.4284 26.5442 33.5316 28.842 33.7957C29.5035 33.8717 29.5411 33.8109 29.5405 33.1308C29.5374 29.6642 29.5341 26.1975 29.5312 22.6225ZM33.9446 34.4781C35.7217 34.9079 37.4822 35.4024 39.2291 35.9202C39.4282 35.3487 39.4244 15.8108 39.2442 15.3642C39.1285 15.3921 39.0053 15.4102 38.8902 15.4512C37.294 16.0202 35.6932 16.5759 34.119 17.2059C33.7162 17.3671 33.5859 17.5935 33.5894 18.0166C33.6075 20.2185 33.5978 22.4207 33.5978 24.6227C33.5978 27.6912 33.596 30.7597 33.6015 33.8282C33.6019 34.062 33.5028 34.3591 33.9446 34.4781ZM14.2274 18.1997C14.221 17.3193 14.179 17.2884 13.3406 17.5312C12.0945 17.8921 10.8506 18.2612 9.59988 18.6055C9.22335 18.7092 9.08482 18.8975 9.08809 19.2934C9.1018 20.954 9.10435 22.6152 9.07527 24.2756C9.01016 27.9934 8.9696 31.7112 8.9922 35.4296C8.99577 36.0176 9.06017 36.0562 9.62142 35.8713C10.8877 35.4542 12.1587 35.0472 13.4623 34.7662C14.0302 34.6438 14.2463 34.4136 14.2429 33.7915C14.2148 28.6288 14.2275 23.4659 14.2274 18.1997Z" fill="#37FF73"/>
<path d="M24.5875 24.9757C24.5867 25.458 24.5986 25.8898 24.5814 26.3204C24.5589 26.8843 24.2467 27.0533 23.3899 27.0627C22.8202 27.069 22.9418 26.6698 22.9282 26.3505C22.9137 26.0097 22.9231 25.6678 22.9237 25.3263C22.9254 24.453 22.9393 24.4365 23.7848 24.283C24.4905 24.1549 24.5606 24.211 24.5875 24.9757Z" fill="#37FF73"/>
<path d="M23.4809 19.2906C23.8227 19.2673 24.1101 19.0783 24.4413 19.2265C24.5971 19.9349 24.5971 20.6541 24.5442 21.3701C24.5144 21.7749 24.0079 22.0046 23.3169 21.9863C22.8462 21.9738 22.965 21.6036 22.9488 21.3489C22.9202 20.8994 22.947 20.4467 22.9321 19.996C22.9197 19.6229 23.0359 19.3623 23.4809 19.2906Z" fill="#37FF73"/>
<path d="M24.4822 14.2454C24.5126 14.8875 24.5409 15.4803 24.5619 16.0734C24.5703 16.3133 24.5603 16.5688 24.2749 16.6473C23.8994 16.7506 23.5264 16.9327 23.1229 16.8076C23.012 16.7732 23.0174 16.6319 23.0043 16.5249C22.9299 15.9159 22.9227 15.3046 22.949 14.6928C22.9609 14.4168 23.058 14.1784 23.3766 14.1725C23.7428 14.1657 24.1234 13.6955 24.4822 14.2454Z" fill="#37FF73"/>
<path d="M26.1695 13.5489C27.7954 13.1951 27.5026 13.2475 27.5268 14.5283C27.5306 14.7269 27.5275 14.9255 27.5274 15.1241C27.5274 16.023 27.1896 16.3184 26.2837 16.2251C26.1218 16.2084 25.9772 16.1619 25.9707 15.9925C25.9408 15.2202 25.8765 14.4459 26.0144 13.677C26.0221 13.634 26.0868 13.6012 26.1695 13.5489Z" fill="#37FF73"/>
<path d="M26.6718 10.9381C26.1127 11.1129 25.9305 10.8866 25.945 10.3907C25.9582 9.94077 25.9693 9.48795 25.9341 9.04008C25.8951 8.54242 26.1087 8.29906 26.5857 8.24592C26.7465 8.22801 26.9096 8.21431 27.0657 8.17524C27.373 8.09835 27.5179 8.22526 27.5209 8.52373C27.5273 9.15426 27.5376 9.78528 27.52 10.4154C27.505 10.9562 27.0445 10.8473 26.6718 10.9381Z" fill="#37FF73"/>
<path d="M25.951 19.5576C25.9785 18.9086 26.7864 18.4251 27.3317 18.6782C27.5135 18.7626 27.5242 18.9228 27.5249 19.0877C27.5277 19.6639 27.5157 20.2405 27.5344 20.8161C27.5455 21.155 27.3978 21.3144 27.0761 21.3498C26.9515 21.3636 26.8291 21.3995 26.7044 21.4104C25.9982 21.4719 25.9625 21.4398 25.955 20.743C25.9509 20.3649 25.9522 19.9867 25.951 19.5576Z" fill="#37FF73"/>
<path d="M23.0625 9.16409C24.4535 8.55431 24.4917 8.57812 24.4924 10.002C24.4925 10.1463 24.4928 10.2906 24.4934 10.4349C24.4981 11.5063 24.2608 11.7222 23.0523 11.6947C22.9439 10.8674 22.83 10.0373 23.0625 9.16409Z" fill="#37FF73"/>
<path d="M12.2154 27.717C11.8161 28.1864 11.2948 28.1064 10.8114 28.097C10.5699 28.0923 10.5676 27.8201 10.5653 27.6243C10.5599 27.1576 10.5578 26.6904 10.573 26.2241C10.5807 25.9849 10.514 25.68 10.8318 25.584C11.2411 25.4602 11.6688 25.358 12.0946 25.4655C12.2786 25.512 12.2386 25.7346 12.2386 25.8915C12.2384 26.4839 12.2308 27.0763 12.2154 27.717Z" fill="#37FF73"/>
<path d="M12.2412 21.4878C12.2405 21.8833 12.2267 22.2261 12.2428 22.5674C12.26 22.9332 12.0741 23.0777 11.7396 23.1336C10.6431 23.3167 10.6441 23.3219 10.6477 22.2163C10.6484 22.0183 10.6486 21.8202 10.6491 21.6221C10.6514 20.585 10.7306 20.5103 11.7746 20.4754C12.0832 20.4651 12.2603 20.5537 12.2413 20.8943C12.2313 21.0738 12.2406 21.2543 12.2412 21.4878Z" fill="#37FF73"/>
</svg>
