<svg width="50" height="50" viewBox="0 0 50 50" fill="none" xmlns="http://www.w3.org/2000/svg">
<path fill-rule="evenodd" clip-rule="evenodd" d="M0 25C0 11.1929 11.1929 0 25 0C38.807 0 50 11.1929 50 25C50 38.807 38.807 50 25 50C11.1929 50 0 38.807 0 25ZM22.5 27.5C22.5 28.8807 23.6193 30 25 30C26.3807 30 27.5 28.8807 27.5 27.5V15C27.5 13.6193 26.3807 12.5 25 12.5C23.6193 12.5 22.5 13.6193 22.5 15V27.5ZM27.5 34.972C27.5 33.5913 26.3807 32.472 25 32.472C23.6193 32.472 22.5 33.5913 22.5 34.972V35C22.5 36.3807 23.6193 37.5 25 37.5C26.3807 37.5 27.5 36.3807 27.5 35V34.972Z" fill="#FFBB2A"/>
</svg>
